<?xml version="1.0" standalone="no"?>
<!DOCTYPE svg PUBLIC "-//W3C//DTD SVG 20010904//EN"
 "http://www.w3.org/TR/2001/REC-SVG-20010904/DTD/svg10.dtd">
<svg version="1.0" xmlns="http://www.w3.org/2000/svg"
 width="2400.000000pt" height="2400.000000pt" viewBox="0 0 2400.000000 2400.000000"
 preserveAspectRatio="xMidYMid meet">
<metadata>
Created by potrace 1.14, written by Peter Selinger 2001-2017
</metadata>
<g transform="translate(0.000000,2400.000000) scale(0.100000,-0.100000)"
fill="#000000" stroke="none">
<path d="M979 15735 c-178 -49 -362 -150 -476 -262 -86 -85 -197 -242 -208
-295 -4 -18 -23 -82 -41 -141 l-34 -109 1 -1286 c0 -992 3 -1303 13 -1357 14
-82 84 -265 128 -338 83 -138 151 -205 290 -288 132 -79 287 -143 398 -165
110 -21 1190 -21 1301 1 169 32 474 187 561 284 105 117 210 323 244 476 20
91 20 2641 0 2735 -33 150 -137 352 -242 469 -90 100 -382 254 -544 287 -50
10 -212 13 -685 13 -620 0 -620 0 -706 -24z m1256 -626 c80 -20 87 -24 143
-83 103 -107 96 -9 99 -1378 3 -1158 3 -1178 -17 -1270 -21 -92 -22 -94 -87
-160 -64 -64 -69 -67 -152 -88 -82 -20 -105 -21 -556 -18 -452 3 -472 4 -529
25 -44 16 -75 37 -118 80 -57 57 -60 62 -79 148 -18 85 -19 138 -19 1259 1
1384 -6 1295 101 1402 103 103 97 102 662 103 444 1 472 0 552 -20z"/>
<path d="M4413 15747 c-56 -16 -108 -68 -122 -123 -16 -61 -16 -3947 0 -4008
15 -62 62 -104 135 -121 73 -18 336 -20 402 -3 54 13 126 58 144 91 10 17 14
223 18 927 l5 905 720 5 720 5 124 43 c182 62 257 108 381 232 88 87 117 125
173 221 43 75 72 138 81 180 9 35 24 91 36 123 18 55 20 83 20 387 l0 327 -31
89 c-17 48 -55 139 -84 201 -46 97 -66 126 -146 212 -78 84 -113 113 -218 179
-106 65 -143 82 -231 107 l-105 29 -990 2 c-728 1 -1001 -2 -1032 -10z m1880
-619 c84 -30 92 -35 145 -99 48 -56 62 -83 90 -166 31 -97 32 -103 32 -274 0
-146 -4 -190 -24 -277 -23 -103 -24 -104 -85 -166 -60 -60 -64 -63 -154 -84
-90 -22 -108 -22 -694 -22 l-603 0 0 560 0 560 602 0 603 0 88 -32z"/>
<path d="M8150 15748 c-51 -14 -106 -72 -119 -124 -14 -55 -14 -314 0 -351 14
-38 65 -90 114 -116 40 -22 42 -22 913 -27 l873 -5 -38 -60 c-22 -33 -59 -100
-83 -150 -24 -49 -112 -191 -194 -315 -82 -124 -197 -308 -256 -410 -123 -214
-185 -317 -360 -600 -128 -208 -305 -504 -420 -705 -35 -60 -103 -169 -151
-241 -48 -71 -101 -159 -119 -195 -18 -35 -45 -80 -60 -99 -15 -19 -51 -78
-79 -131 -28 -53 -60 -104 -71 -114 -10 -9 -33 -50 -50 -90 -29 -70 -30 -80
-30 -217 0 -165 10 -210 53 -256 62 -65 7 -62 1319 -62 851 0 1202 3 1236 11
57 14 118 69 132 119 13 47 13 325 -1 375 -16 58 -62 102 -121 114 -32 7 -350
11 -925 11 l-875 0 36 40 c19 22 61 90 92 152 31 62 132 228 224 368 93 140
201 318 241 395 40 77 98 176 130 221 32 44 74 115 92 156 19 42 60 109 90
149 30 41 76 117 102 169 26 52 73 135 104 185 31 49 74 122 96 160 21 39 62
102 90 140 29 39 74 108 100 155 27 47 85 139 131 205 45 66 97 152 116 190
47 96 120 224 187 325 84 129 101 186 101 342 0 71 -5 149 -11 172 -13 53 -59
98 -115 114 -53 15 -2440 15 -2494 0z"/>
<path d="M13470 15723 c-38 -7 -219 -72 -273 -99 -90 -45 -162 -99 -275 -208
-92 -90 -125 -129 -179 -219 -67 -111 -92 -176 -119 -302 -8 -38 -21 -101 -29
-140 -8 -38 -26 -137 -40 -219 -13 -82 -35 -199 -49 -260 -13 -61 -27 -142
-31 -181 -4 -38 -16 -108 -26 -155 -11 -47 -26 -138 -34 -202 -15 -119 -33
-217 -78 -428 -14 -63 -28 -146 -32 -185 -11 -114 -34 -251 -61 -359 -14 -56
-29 -144 -34 -196 -4 -52 -15 -135 -25 -185 -11 -59 -15 -122 -13 -185 4 -87
8 -107 62 -245 64 -167 69 -173 232 -299 81 -64 125 -83 274 -122 57 -15 139
-18 638 -21 551 -4 576 -3 635 16 34 11 89 25 122 32 70 13 137 46 284 136
127 78 158 106 266 243 83 106 129 185 164 282 25 69 28 86 41 193 5 50 22
137 36 195 14 58 32 153 39 211 8 58 34 209 58 335 25 126 48 263 52 304 4 41
22 138 41 216 41 170 42 203 11 232 l-23 22 -621 0 -621 0 -35 -39 c-41 -45
-56 -100 -64 -237 -4 -60 -2 -98 6 -112 l12 -22 429 0 430 0 0 -22 c0 -27 -47
-255 -55 -267 -3 -5 -12 -69 -21 -143 -8 -73 -24 -171 -34 -218 -11 -47 -24
-128 -30 -180 -16 -137 -27 -191 -66 -314 -56 -175 -88 -229 -188 -316 -100
-87 -172 -123 -273 -139 -99 -15 -946 -15 -1050 1 -140 20 -237 107 -284 252
-25 77 -25 83 -12 161 7 44 13 103 13 130 0 28 9 93 19 145 11 52 25 133 31
180 6 47 22 126 35 175 13 50 26 122 30 160 4 39 26 165 50 280 24 116 49 255
55 310 6 55 22 147 35 205 12 58 26 139 30 180 3 41 17 121 30 176 25 107 75
395 82 479 3 28 11 57 18 65 7 8 18 45 23 81 22 142 116 258 298 366 77 46
116 63 166 72 84 14 937 15 1028 0 90 -14 188 -78 230 -151 68 -119 89 -284
53 -420 -9 -35 -17 -99 -17 -143 l-1 -80 205 -3 c202 -2 205 -2 222 20 11 15
18 41 18 73 0 28 11 95 25 150 13 55 27 125 31 156 11 95 -46 342 -104 454
-11 22 -60 79 -109 127 -94 93 -110 102 -296 169 l-108 39 -612 -1 c-337 -1
-623 -4 -637 -6z"/>
<path d="M23635 15714 c-152 -25 -260 -47 -277 -56 -11 -5 -18 -20 -18 -37 0
-15 -9 -54 -20 -86 -11 -32 -20 -82 -20 -110 0 -29 -11 -106 -24 -171 -13 -66
-29 -155 -35 -199 -6 -43 -20 -109 -31 -146 -11 -38 -31 -144 -44 -236 -13
-92 -33 -204 -44 -248 -11 -44 -25 -125 -32 -180 -6 -55 -20 -134 -30 -175
-11 -42 -24 -120 -30 -175 -6 -55 -22 -147 -35 -205 -13 -58 -27 -139 -30
-180 -4 -41 -20 -131 -35 -200 -15 -69 -31 -159 -35 -200 -4 -41 -15 -113 -26
-160 -11 -47 -27 -132 -35 -190 -8 -58 -23 -136 -34 -175 -10 -38 -26 -122
-35 -185 -28 -205 -65 -433 -87 -530 -23 -106 -38 -218 -41 -300 l-2 -55 202
-3 c201 -2 202 -2 217 20 19 30 36 97 45 178 4 36 17 110 29 165 12 55 35 192
51 305 17 113 37 228 46 255 9 28 23 97 31 155 9 58 24 139 34 180 10 41 26
127 34 190 8 63 24 156 34 205 11 50 25 135 32 190 6 55 20 136 30 180 10 44
24 118 30 165 6 47 22 137 35 200 13 63 27 144 30 180 4 36 19 130 35 210 16
80 31 170 35 200 4 30 18 102 31 160 13 58 37 204 55 324 17 121 40 244 50
274 10 30 19 80 19 110 0 30 7 82 16 116 9 33 20 84 24 111 4 28 14 64 21 81
27 67 -3 75 -166 48z"/>
<path d="M17155 14496 l-170 -32 -146 -89 c-206 -127 -273 -192 -394 -390 -50
-81 -79 -144 -111 -240 -24 -71 -44 -143 -44 -160 0 -16 -24 -149 -54 -295
-30 -146 -59 -317 -65 -380 -6 -63 -22 -167 -35 -230 -13 -63 -27 -140 -31
-170 -4 -30 -14 -67 -21 -82 -20 -39 -19 -266 2 -355 8 -37 33 -104 54 -148
79 -164 157 -243 326 -327 187 -92 530 -112 944 -54 160 23 211 34 285 63 50
20 95 41 101 47 20 20 47 139 52 232 6 118 -1 124 -115 95 -43 -11 -150 -30
-238 -41 -138 -19 -198 -21 -440 -18 l-280 3 -62 38 c-90 55 -145 129 -172
231 -24 93 -27 185 -7 271 8 33 17 85 20 115 4 30 12 72 18 93 l11 37 445 0
c430 0 449 1 596 26 226 38 222 36 392 140 181 110 197 123 305 257 88 108
147 218 204 376 l37 104 -4 191 c-4 182 -6 194 -33 261 -39 97 -126 225 -183
273 -112 93 -228 144 -389 171 -101 18 -161 21 -374 20 -242 -1 -262 -2 -424
-33z m655 -377 c59 -10 77 -19 127 -59 79 -64 135 -141 162 -223 30 -89 26
-223 -8 -309 -52 -132 -190 -301 -283 -346 -24 -12 -80 -32 -123 -44 -76 -21
-101 -22 -552 -26 l-473 -3 0 28 c0 45 77 467 101 551 47 170 196 343 336 394
32 11 87 26 123 33 84 16 497 19 590 4z"/>
<path d="M20520 14515 c-36 -7 -109 -20 -164 -30 -95 -17 -105 -22 -255 -112
-207 -125 -270 -187 -399 -399 -69 -112 -94 -177 -117 -295 -8 -44 -19 -88
-24 -97 -9 -17 -18 -73 -62 -387 -11 -82 -39 -238 -61 -345 -22 -107 -46 -235
-53 -285 -52 -343 -55 -393 -26 -507 38 -148 141 -313 227 -363 27 -16 72 -45
99 -65 69 -52 137 -74 300 -100 121 -20 162 -22 329 -17 258 8 550 51 653 96
40 17 77 31 83 31 22 0 49 45 50 82 0 21 10 83 22 138 21 101 21 101 1 121
-19 20 -20 20 -114 -1 -198 -43 -377 -60 -633 -60 -132 0 -267 4 -298 9 -122
20 -229 124 -266 259 -22 78 -23 54 9 352 5 52 15 111 21 132 l11 38 439 0
440 0 186 31 c141 23 203 37 251 60 162 75 372 230 413 306 15 26 47 68 72 92
25 25 51 61 57 80 6 20 34 97 61 171 28 74 56 174 64 221 13 81 13 95 -10 227
-20 118 -30 155 -65 224 -83 166 -156 239 -327 323 -137 67 -263 85 -594 84
-163 -1 -278 -5 -320 -14z m561 -399 c78 -15 146 -62 215 -151 59 -77 84 -156
84 -270 0 -105 -19 -173 -74 -263 -94 -155 -181 -237 -287 -272 -145 -48 -175
-50 -644 -50 -246 0 -446 4 -449 9 -3 5 3 34 14 66 21 60 85 400 96 509 6 62
10 68 91 170 131 164 213 222 363 252 79 16 509 16 591 0z"/>
<path d="M22 10427 c-6 -7 -9 -23 -5 -35 l5 -22 11962 0 11961 0 13 20 c10 17
10 23 -2 35 -13 13 -1497 15 -11969 15 -9806 0 -11956 -2 -11965 -13z"/>
<path d="M400 9541 c-69 -21 -121 -65 -156 -131 -17 -32 -19 -65 -22 -342 -4
-379 -1 -401 72 -473 32 -32 66 -55 92 -63 53 -16 333 -16 385 0 52 15 113 68
138 121 20 41 21 59 21 378 l0 335 -26 52 c-29 58 -84 103 -149 121 -45 12
-316 14 -355 2z m341 -160 l29 -29 0 -312 c0 -317 -2 -339 -39 -367 -11 -8
-61 -12 -154 -13 -132 0 -139 1 -162 24 -13 13 -26 39 -30 57 -3 19 -5 164 -3
322 l3 289 33 29 c32 29 33 29 163 29 l131 0 29 -29z"/>
<path d="M3543 9540 c-66 -15 -63 7 -63 -428 0 -283 3 -406 12 -436 19 -61 84
-121 154 -142 78 -22 200 -16 271 15 64 28 126 93 161 169 24 51 27 68 27 172
0 103 -3 121 -26 170 -37 78 -90 134 -157 167 -50 24 -71 28 -169 32 l-113 3
0 132 c0 162 -4 168 -97 146z m319 -446 c21 -12 43 -39 61 -73 23 -46 27 -67
27 -133 0 -162 -77 -241 -218 -225 -34 4 -53 12 -69 32 -22 25 -23 32 -23 227
l0 201 94 -5 c67 -4 104 -11 128 -24z"/>
<path d="M6752 9538 c-9 -9 -12 -135 -12 -504 0 -411 2 -493 14 -503 9 -7 40
-11 78 -9 l63 3 3 233 2 232 181 0 c193 0 220 5 287 57 57 43 82 111 82 224 0
82 -4 102 -25 146 -27 54 -77 95 -142 119 -51 18 -513 20 -531 2z m489 -138
c33 -18 49 -64 49 -140 0 -66 -2 -74 -29 -101 l-29 -29 -166 0 -166 0 0 140 0
140 161 0 c91 0 169 -4 180 -10z"/>
<path d="M9747 9540 c-21 -4 -42 -11 -48 -17 -6 -6 -8 -198 -7 -504 l3 -494
49 -3 c27 -2 60 -1 73 3 l23 5 2 293 3 292 108 3 c108 3 108 3 137 -27 l30
-29 0 -260 c0 -211 3 -262 14 -271 9 -7 40 -11 78 -9 l63 3 0 292 0 291 -31
43 c-17 24 -55 56 -85 73 -51 29 -61 31 -181 35 l-128 3 0 127 c0 111 -2 130
-18 144 -20 18 -26 19 -85 7z"/>
<path d="M10502 9541 c-9 -5 -12 -26 -10 -67 l3 -59 100 0 100 0 3 53 c4 75
-4 82 -102 82 -44 0 -87 -4 -94 -9z"/>
<path d="M12822 9541 c-9 -5 -12 -26 -10 -67 l3 -59 100 0 100 0 3 53 c4 75
-4 82 -102 82 -44 0 -87 -4 -94 -9z"/>
<path d="M14616 9540 c-22 -4 -45 -16 -53 -26 -10 -14 -13 -112 -13 -487 0
-304 4 -475 10 -488 9 -15 22 -19 68 -19 32 0 63 5 70 12 9 9 12 90 12 301 l0
289 115 -4 c170 -5 159 15 163 -310 2 -168 7 -267 14 -275 13 -17 120 -17 136
-1 16 16 17 506 1 561 -13 48 -70 112 -123 140 -34 17 -63 22 -173 25 l-133 4
0 132 c0 163 -1 164 -94 146z"/>
<path d="M15681 9536 c-7 -8 -11 -37 -9 -68 l3 -53 232 -5 231 -5 -234 -385
-235 -385 3 -55 3 -55 315 -3 c287 -2 316 -1 328 15 15 21 16 95 0 111 -9 9
-75 12 -235 12 l-222 0 234 389 c213 352 235 392 235 433 0 24 -5 49 -12 56
-19 19 -621 17 -637 -2z"/>
<path d="M11710 9443 c-8 -3 -23 -12 -32 -21 -17 -14 -18 -43 -18 -346 0 -240
4 -345 13 -382 28 -109 117 -174 238 -174 79 0 99 14 99 66 0 61 -13 74 -76
74 -45 0 -59 4 -79 25 -25 24 -25 25 -25 225 l0 200 74 0 c54 0 79 4 90 16 19
18 22 94 4 112 -7 7 -43 12 -90 12 l-78 0 0 81 c0 104 -8 119 -63 118 -23 0
-49 -3 -57 -6z"/>
<path d="M20995 9443 c-46 -11 -45 -7 -45 -389 0 -263 3 -371 12 -391 40 -93
121 -143 229 -143 48 0 72 5 83 16 19 18 22 94 4 112 -7 7 -36 12 -65 12 -45
0 -58 4 -78 26 -25 27 -25 29 -25 225 l0 199 78 0 c47 0 83 5 90 12 13 13 16
85 6 112 -5 13 -23 16 -90 16 l-84 0 0 81 c0 101 -9 119 -58 118 -20 -1 -46
-4 -57 -6z"/>
<path d="M5980 9249 c-69 -11 -129 -58 -166 -129 -16 -31 -19 -66 -22 -290 -2
-167 0 -265 7 -283 11 -27 13 -28 78 -25 l68 3 5 262 c6 339 1 330 192 332
107 1 118 8 118 68 0 54 -14 61 -135 65 -61 2 -127 1 -145 -3z"/>
<path d="M12369 9248 c-63 -11 -118 -54 -151 -117 l-28 -53 0 -267 c0 -194 3
-270 12 -279 16 -16 120 -16 136 0 9 9 12 82 12 265 l0 253 29 32 c29 32 30
32 137 36 60 2 115 9 122 14 6 6 12 30 12 53 0 23 -6 47 -12 53 -16 13 -210
20 -269 10z"/>
<path d="M17470 9249 c-69 -11 -128 -57 -166 -129 -17 -31 -19 -64 -22 -303
-2 -196 0 -272 9 -283 12 -15 114 -20 136 -6 9 5 13 79 15 270 l3 262 27 27
c26 26 34 28 145 33 l118 5 3 58 c2 40 -1 59 -10 62 -22 7 -221 11 -258 4z"/>
<path d="M21649 9248 c-64 -11 -119 -54 -151 -117 l-28 -55 0 -266 c0 -194 3
-269 12 -278 16 -16 120 -16 136 0 9 9 12 81 12 260 0 277 4 297 61 317 18 6
73 11 123 11 58 0 96 4 104 12 16 16 15 93 0 106 -16 13 -210 20 -269 10z"/>
<path d="M1249 9230 c-50 -26 -96 -77 -114 -124 -13 -35 -15 -102 -13 -456 l3
-415 75 0 75 0 3 141 3 142 117 4 c140 6 186 23 257 99 75 80 89 123 90 264 0
109 -2 125 -26 176 -35 74 -89 132 -152 163 -46 24 -62 26 -166 26 -94 -1
-123 -5 -152 -20z m261 -140 c16 -11 40 -43 54 -72 33 -66 37 -189 7 -253 -38
-82 -84 -105 -207 -105 l-84 0 0 190 c0 215 6 242 63 259 46 15 134 4 167 -19z"/>
<path d="M2046 9230 c-54 -27 -82 -55 -108 -109 -21 -43 -23 -59 -23 -231 0
-206 6 -238 59 -292 61 -62 95 -73 236 -73 104 0 132 4 165 20 37 19 40 23 43
66 4 64 -9 73 -89 59 -35 -5 -95 -10 -132 -10 -61 0 -71 3 -92 26 -14 15 -26
38 -26 50 -1 13 -2 30 -3 37 -1 9 35 14 131 19 119 5 137 9 184 35 33 17 65
45 84 71 27 40 30 51 30 126 0 73 -3 87 -28 124 -16 24 -49 54 -80 72 -51 29
-55 30 -182 30 -109 -1 -136 -4 -169 -20z m275 -139 c37 -38 39 -88 5 -128
-24 -28 -26 -28 -137 -28 -129 0 -127 -1 -114 83 4 30 16 55 35 74 26 26 34
28 105 28 71 0 79 -2 106 -29z"/>
<path d="M2805 9222 c-28 -15 -62 -45 -80 -70 l-30 -44 0 -291 0 -292 65 -3
c52 -2 67 0 77 14 10 13 13 81 13 270 l0 253 24 28 c23 27 28 28 111 28 83 0
88 -1 111 -28 l24 -28 0 -253 c0 -189 3 -257 13 -270 10 -14 25 -16 77 -14
l65 3 0 292 0 291 -30 44 c-18 25 -52 55 -80 70 -47 26 -57 28 -180 28 -123 0
-133 -2 -180 -28z"/>
<path d="M4425 9243 c-36 -9 -45 -24 -45 -74 0 -60 14 -69 90 -58 109 15 147
12 180 -18 22 -20 33 -40 37 -70 l5 -41 -138 -4 c-118 -3 -145 -7 -179 -25
-82 -43 -125 -114 -125 -203 0 -94 46 -164 135 -206 47 -23 61 -24 247 -24
189 0 198 1 208 21 8 14 10 104 8 282 -3 248 -4 264 -25 303 -26 48 -70 88
-120 109 -34 15 -229 20 -278 8z m265 -493 l0 -90 -112 0 c-108 0 -113 1 -140
27 -39 37 -38 84 1 124 29 29 31 29 140 29 l111 0 0 -90z"/>
<path d="M5185 9243 c-35 -9 -45 -24 -45 -73 0 -26 6 -52 13 -57 7 -6 35 -7
72 -2 122 15 154 12 186 -20 22 -23 29 -39 29 -69 l0 -40 -132 -4 c-150 -4
-189 -17 -247 -84 -42 -47 -53 -76 -53 -145 -2 -102 56 -181 155 -215 33 -11
88 -14 237 -12 l195 3 0 291 0 290 -28 42 c-16 24 -49 54 -80 72 -50 29 -56
30 -167 29 -63 -1 -124 -4 -135 -6z m255 -493 l0 -90 -106 0 c-58 0 -114 5
-126 11 -11 6 -26 26 -34 44 -17 41 -7 73 32 104 23 18 40 21 130 21 l104 0 0
-90z"/>
<path d="M7746 9240 c-43 -14 -90 -49 -117 -88 -20 -30 -24 -48 -24 -111 0
-103 16 -125 137 -182 182 -87 173 -80 176 -120 3 -30 -2 -41 -25 -59 -26 -21
-34 -22 -123 -16 -52 4 -111 8 -130 9 l-35 2 0 -60 0 -60 40 -14 c24 -8 87
-14 155 -15 104 -1 120 1 164 24 74 37 109 86 114 160 9 119 -21 158 -176 225
-124 54 -142 68 -142 107 0 53 29 68 128 68 48 0 104 -4 125 -9 49 -12 67 5
67 64 0 40 -3 46 -32 62 -38 19 -252 29 -302 13z"/>
<path d="M8234 9235 c-6 -15 198 -675 220 -710 18 -29 0 -80 -41 -122 -31 -31
-38 -33 -98 -33 -78 0 -95 -14 -95 -74 0 -61 13 -69 114 -65 79 4 87 6 142 44
96 67 106 88 248 537 70 224 126 414 122 423 -7 19 -128 22 -144 2 -6 -6 -42
-116 -82 -242 -39 -127 -72 -234 -74 -240 -2 -5 -38 98 -81 230 -42 132 -82
246 -87 253 -16 18 -137 16 -144 -3z"/>
<path d="M9110 9218 c-37 -22 -64 -49 -85 -82 -30 -49 -30 -51 -33 -211 -5
-221 4 -265 72 -331 67 -65 113 -79 244 -71 147 8 182 27 182 96 0 40 -26 64
-59 57 -14 -3 -67 -9 -118 -12 -152 -11 -167 11 -161 248 3 144 4 148 30 174
29 29 61 32 215 18 65 -6 72 -4 82 14 6 11 11 34 11 50 0 59 -60 82 -214 82
-108 0 -114 -1 -166 -32z"/>
<path d="M10517 9244 c-4 -4 -7 -164 -7 -354 0 -287 2 -350 14 -359 9 -7 40
-11 78 -9 l63 3 0 360 0 360 -70 3 c-39 1 -74 0 -78 -4z"/>
<path d="M11023 9235 c-30 -13 -33 -18 -33 -59 0 -46 22 -81 45 -72 36 13 177
18 205 6 36 -15 60 -55 60 -100 l0 -30 -117 0 c-137 0 -177 -9 -234 -53 -61
-47 -84 -96 -84 -184 0 -63 3 -76 30 -114 35 -50 82 -84 134 -99 53 -15 404
-13 419 2 16 16 17 505 0 559 -15 52 -68 113 -121 138 -36 18 -62 21 -158 21
-75 -1 -125 -6 -146 -15z m277 -485 l0 -90 -111 0 c-109 0 -111 0 -140 29 -20
20 -29 39 -29 61 0 22 9 41 29 61 29 29 31 29 140 29 l111 0 0 -90z"/>
<path d="M12836 9235 c-3 -9 -6 -169 -6 -355 0 -279 2 -340 14 -349 9 -7 40
-11 78 -9 l63 3 0 360 0 360 -71 3 c-59 2 -73 0 -78 -13z"/>
<path d="M13325 9226 c-81 -38 -125 -103 -125 -185 0 -93 31 -128 180 -198 63
-30 123 -62 133 -70 24 -23 21 -60 -8 -88 -21 -22 -33 -25 -93 -25 -37 0 -94
5 -126 11 -74 13 -88 3 -84 -60 3 -43 6 -47 43 -66 33 -16 62 -19 160 -20 116
0 122 1 175 31 103 59 139 183 81 278 -19 31 -43 46 -140 92 -154 73 -145 67
-155 98 -8 21 -6 32 11 54 l20 27 137 0 c150 0 156 2 156 61 0 60 -60 84 -215
84 -84 0 -108 -4 -150 -24z"/>
<path d="M14005 9237 c-47 -22 -94 -66 -118 -111 -21 -38 -22 -54 -22 -241 0
-199 0 -200 27 -246 29 -50 85 -94 139 -109 44 -13 162 -13 229 0 70 13 90 32
90 85 0 59 -15 69 -86 56 -32 -6 -86 -11 -120 -11 -52 0 -68 4 -91 24 l-28 24
-3 170 -3 170 28 32 c29 32 30 32 114 30 46 -2 107 -4 134 -4 l50 -1 0 55 c0
51 -2 56 -30 70 -42 20 -268 26 -310 7z"/>
<path d="M16625 9222 c-28 -15 -62 -45 -80 -70 l-30 -44 -3 -208 c-4 -237 1
-257 78 -322 53 -46 98 -58 217 -58 117 0 172 16 221 63 64 61 75 95 80 262 7
240 -17 316 -121 375 -51 29 -56 30 -182 30 -123 0 -133 -2 -180 -28z m292
-136 c22 -26 23 -34 23 -200 l0 -173 -26 -27 c-25 -24 -33 -26 -110 -26 -78 0
-85 2 -109 27 -25 28 -25 30 -25 199 0 157 2 173 20 197 25 31 45 36 134 32
61 -2 73 -6 93 -29z"/>
<path d="M18023 9220 c-63 -36 -98 -85 -114 -159 -14 -65 -7 -363 9 -403 15
-37 79 -106 116 -125 21 -11 70 -19 150 -23 110 -5 120 -8 138 -30 14 -17 18
-33 14 -54 -10 -46 -31 -55 -131 -56 -104 0 -129 11 -140 63 -4 17 -12 38 -17
45 -13 16 -120 16 -136 0 -33 -33 3 -135 67 -190 58 -50 107 -61 248 -56 96 3
126 8 158 25 75 39 115 105 115 187 0 56 -14 93 -48 129 -52 55 -96 70 -223
76 -110 6 -149 17 -149 42 0 5 55 9 123 9 112 0 128 2 174 25 99 50 126 110
121 268 -3 110 -5 118 -33 158 -19 27 -50 54 -84 71 -50 26 -61 28 -180 28
-122 0 -128 -1 -178 -30z m249 -111 c51 -13 68 -49 68 -138 0 -60 -3 -74 -26
-100 l-26 -31 -115 0 -115 0 4 109 c3 99 5 112 27 135 33 35 110 46 183 25z"/>
<path d="M18826 9230 c-52 -27 -65 -38 -98 -89 l-28 -45 0 -203 c0 -228 4
-245 66 -305 57 -56 116 -72 238 -66 58 3 117 12 139 21 36 15 37 18 37 65 0
67 -13 76 -86 63 -83 -16 -176 -14 -200 4 -39 27 -46 63 -42 228 3 150 4 156
28 182 l25 27 135 -3 135 -4 0 55 c0 51 -2 56 -30 70 -21 10 -69 15 -155 17
-108 3 -130 1 -164 -17z"/>
<path d="M19505 9231 c-51 -23 -111 -89 -124 -138 -15 -52 -14 -371 0 -414 18
-52 55 -96 107 -126 45 -27 53 -28 177 -28 98 1 139 5 168 17 36 16 37 19 37
66 0 67 -13 76 -86 63 -32 -6 -90 -11 -130 -11 -68 0 -74 2 -98 31 -16 19 -26
43 -26 63 l0 33 129 5 c106 5 138 10 175 28 79 38 136 124 136 205 0 80 -57
167 -133 204 -60 29 -270 30 -332 2z m255 -126 c31 -16 56 -72 46 -103 -4 -10
-18 -30 -32 -43 -23 -21 -36 -24 -135 -27 l-109 -4 0 64 c0 68 16 103 54 118
35 14 144 11 176 -5z"/>
<path d="M20275 9231 c-51 -23 -111 -89 -124 -138 -16 -55 -15 -545 1 -561 12
-12 104 -17 132 -6 14 5 16 38 16 265 l0 259 29 32 c29 32 32 33 110 33 75 0
83 -2 108 -28 l28 -27 5 -268 5 -267 63 -3 c38 -2 69 2 78 9 11 9 14 59 14
268 0 150 -5 272 -11 294 -13 49 -68 110 -123 136 -59 29 -270 30 -331 2z"/>
<path d="M22097 9243 c-4 -3 -7 -127 -7 -275 0 -292 3 -313 58 -372 15 -16 50
-39 77 -52 43 -20 66 -24 154 -24 129 0 170 12 232 68 73 66 79 94 79 393 0
200 -3 249 -14 258 -9 7 -40 11 -78 9 l-63 -3 -5 -267 c-5 -265 -5 -267 -29
-292 -23 -24 -31 -26 -113 -26 -83 0 -91 2 -113 26 l-25 27 0 253 c0 139 -3
259 -6 268 -5 12 -21 16 -73 16 -37 0 -71 -3 -74 -7z"/>
<path d="M23003 9220 c-31 -18 -64 -48 -80 -72 l-28 -42 0 -290 0 -291 63 -3
c38 -2 69 2 78 9 11 9 14 60 14 271 l0 260 29 29 c27 27 35 29 106 29 71 0 79
-2 106 -29 l29 -29 0 -259 c0 -188 3 -262 12 -271 16 -16 123 -16 136 1 7 8
12 106 14 270 l3 257 28 27 c26 26 33 28 113 28 82 0 87 -1 110 -28 l24 -28 0
-258 c0 -211 3 -261 14 -270 9 -7 40 -11 78 -9 l63 3 0 292 0 291 -30 43 c-19
27 -50 54 -84 71 -50 26 -61 28 -181 28 -114 0 -131 -2 -172 -24 l-44 -23 -45
23 c-39 21 -58 23 -174 23 -127 1 -131 0 -182 -29z"/>
</g>
</svg>
