<svg width="150" height="47.13" viewBox="0 0 853 268" xmlns="http://www.w3.org/2000/svg" class="logo"><g fill="none" fill-rule="evenodd"><path d="M27.4 249.4v-20c0-.9-.3-1.7-.9-2.3-.6-.7-1.3-1-2-1h-7.8c-.8 0-1.5.3-2.1 1-.7.6-1 1.4-1 2.4v20c0 .9.3 1.7 1 2.3.6.7 1.3 1 2 1h7.8c.9 0 1.6-.3 2.2-1 .6-.6.8-1.4.8-2.4zm5.7-19.9v19.9c0 2.4-.9 4.4-2.5 6a8.7 8.7 0 0 1-6.2 2.3h-7.8c-2.4 0-4.4-.8-6.1-2.4a7.8 7.8 0 0 1-2.5-5.9v-19.9c0-2.4.8-4.4 2.5-6a8.7 8.7 0 0 1 6.2-2.3h7.7c2.4 0 4.5.8 6.2 2.4a7.8 7.8 0 0 1 2.5 6zm23.6 15.1c0-2.4-.6-4.5-1.8-6-1-1.4-2.3-2.1-3.8-2.1h-2.6c-.8 0-1.5.3-2.1 1-.6.6-1 1.4-1 2.4v12.8H51c1.6 0 2.9-.7 4-2a9.4 9.4 0 0 0 1.7-6zm5.6 0c0 3.7-1 6.8-3.2 9.3a10.2 10.2 0 0 1-8 3.7h-5.6v9c0 1-.5 1.4-1.4 1.4h-3c-.8 0-1.3-.5-1.3-1.3v-26.8c0-2.4.9-4.4 2.5-6a8.6 8.6 0 0 1 6.1-2.3h2.7a10 10 0 0 1 8 3.7c2.2 2.5 3.2 5.6 3.2 9.3zm21.4-4.9c0-.9-.3-1.6-1-2.3-.5-.6-1.2-1-2-1h-4c-.7 0-1.5.4-2 1-.6.7-1 1.4-1 2.3v3.3h7c.8 0 1.5-.3 2-1 .7-.6 1-1.4 1-2.3zm5.6 0c0 2.4-.8 4.3-2.5 5.9a8.8 8.8 0 0 1-6.1 2.3h-7v1.6c0 .9.4 1.7 1 2.3.5.7 1.3 1 2 1 3.4 0 5.9-.2 7.6-.7.5-.1.9 0 1.2.3.3.3.4.6.4 1v2c0 1.5-3 2.3-9.1 2.3-2.4 0-4.5-.8-6.2-2.3a7.6 7.6 0 0 1-2.5-5.9v-9.8c0-2.3.9-4.2 2.5-5.8a8.7 8.7 0 0 1 6.2-2.3h3.9c2.4 0 4.4.8 6.1 2.3a7.6 7.6 0 0 1 2.5 5.8zm27.4 16.7c0 .8-.4 1.3-1.3 1.3h-3c-.9 0-1.3-.5-1.3-1.3v-16.6c0-1-.3-1.7-1-2.3-.5-.7-1.2-1-2-1h-3.9c-.8 0-1.5.3-2.1 1-.6.6-1 1.4-1 2.3v16.6c0 .8-.4 1.3-1.3 1.3h-3c-.8 0-1.3-.5-1.3-1.3v-16.7c0-2.3.9-4.3 2.5-5.8a8.8 8.8 0 0 1 6.2-2.3h3.9c2.4 0 4.4.8 6.1 2.3a7.6 7.6 0 0 1 2.5 5.8v16.7m23.9-11.8c0-2.5-.6-4.5-1.8-6a4.8 4.8 0 0 0-3.9-2.1h-5.6v12.9c0 .9.3 1.7 1 2.3a3 3 0 0 0 2 1h2.6c1.5 0 2.9-.7 4-2.2a9.7 9.7 0 0 0 1.7-6zm5.6 0c0 3.7-1.1 6.8-3.3 9.3a10.2 10.2 0 0 1-8 3.7h-2.6c-2.4 0-4.5-.8-6.1-2.3a7.7 7.7 0 0 1-2.5-6V223c0-.7.6-1.2 1.8-1.5l2.3-.3c.4 0 .8 0 1 .3.4.3.5.6.5 1v9h5.6c3.2 0 5.9 1.3 8 3.8 2.2 2.5 3.3 5.6 3.3 9.3zm20.4 8.2v-6.5h-6.9c-.8 0-1.5.3-2.1 1-.6.6-1 1.4-1 2.2 0 1 .4 1.7 1 2.3.6.7 1.3 1 2.1 1h6.9zm5.6 3.6c0 .8-.4 1.3-1.3 1.3h-11.2c-2.4 0-4.5-.8-6.2-2.3a7.6 7.6 0 0 1-2.5-5.9c0-2.3.9-4.3 2.5-5.8a8.8 8.8 0 0 1 6.2-2.3h6.9v-1.6c0-1-.3-1.7-1-2.4-.5-.6-1.2-1-2-1-3 0-5.2.2-6.4.5a1 1 0 0 1-1.1-.4c-.3-.3-.4-.6-.4-1v-2c0-.7.4-1 1.1-1.3 1.5-.4 3.7-.6 6.8-.6 2.4 0 4.4.8 6.1 2.3a7.6 7.6 0 0 1 2.5 5.8v16.7zm21.3-3.6v-6.5h-6.9c-.8 0-1.5.3-2.1 1-.6.6-1 1.4-1 2.2 0 1 .4 1.7 1 2.3.6.7 1.3 1 2.1 1h6.9zm5.6 3.6c0 .8-.4 1.3-1.3 1.3h-11.2c-2.4 0-4.5-.8-6.2-2.3a7.6 7.6 0 0 1-2.5-5.9c0-2.3.9-4.3 2.5-5.8a8.8 8.8 0 0 1 6.2-2.3h6.9v-1.6c0-1-.3-1.7-1-2.4-.5-.6-1.2-1-2-1-3 0-5.2.2-6.4.5a1 1 0 0 1-1.1-.4c-.3-.3-.4-.6-.4-1v-2c0-.7.4-1 1.1-1.3 1.5-.4 3.7-.6 6.8-.6 2.4 0 4.4.8 6.1 2.3a7.6 7.6 0 0 1 2.5 5.8v16.7zm23.2-21.3c0 .3-.2.7-.5 1-.3.2-.6.4-1 .4h-6.1c-.8 0-1.5.3-2.1 1-.6.6-1 1.4-1 2.3v16.5c0 .9-.4 1.3-1.3 1.3h-3c-.8 0-1.3-.4-1.3-1.3v-16.5c0-2.4.8-4.4 2.5-6a8.3 8.3 0 0 1 6.2-2.2l6.2.2c1 0 1.4.5 1.4 1.3v2m36.8-2.3v-3.3c0-1-.3-1.7-.9-2.4-.6-.7-1.3-1-2.1-1h-10.8v10h10.8c.8 0 1.5-.3 2.1-1 .6-.6 1-1.4 1-2.3zm5.7-3.3v3.2a8 8 0 0 1-2.6 6 8.6 8.6 0 0 1-6.1 2.3h-10.8v15.4c0 .8-.5 1.3-1.4 1.3H241c-.9 0-1.3-.5-1.3-1.3v-33.9c0-.9.4-1.3 1.3-1.3h15.1c2.4 0 4.5.8 6.2 2.4a7.5 7.5 0 0 1 2.5 5.9zM287.3 250a7 7 0 0 1-2.5 5.6 9.2 9.2 0 0 1-6.1 2c-5.8 0-8.7-.7-8.7-2.2v-2c0-.4.2-.7.4-1 .3-.3.7-.4 1.2-.3 1.7.5 4 .7 7 .7 1 0 1.7-.3 2.2-.8.6-.5.9-1.2.9-2s-.4-1.4-1.2-1.9l-2.2-1-5.6-2.6a6 6 0 0 1-2.7-5.2 7 7 0 0 1 2.5-5.6c1.7-1.4 3.7-2 6.2-2 5.6 0 8.5.7 8.5 2.2v2c0 .3-.2.6-.5 1-.2.3-.6.4-1.1.3-1.8-.5-4-.7-7-.7-.8 0-1.6.2-2.1.8-.6.5-.9 1.2-.9 2s.4 1.4 1.2 1.9l2.2 1a42 42 0 0 1 5.6 2.6 6 6 0 0 1 2.7 5.1m27.2-16.8L306 260c-.7 2.4-2 4.3-4 5.9a9.3 9.3 0 0 1-6.5 2.2l-2-.2c-.8 0-1.2-.5-1.2-1.2v-2.2c0-.9.4-1.3 1.3-1.3h2.8c.8 0 1.6-.3 2.4-1 .9-.8 1.4-1.6 1.7-2.6l.5-1.5c-.4-.2-.7-.5-.8-1l-7.6-23.9v-.3c0-.8.4-1.2 1.2-1.2h2.9c.7 0 1.2.3 1.4 1l5.5 17.2 5.3-17.1c.3-.7.7-1 1.5-1h2.9c.8 0 1.2.3 1.2 1v.4M337 236c0 .2 0 .5-.4.8-.3.4-.6.5-1.1.4a29 29 0 0 0-7.1-.7c-.8 0-1.5.3-2.1 1-.6.6-1 1.4-1 2.3v9.7c0 1 .4 1.7 1 2.3.6.7 1.3 1 2.1 1 3 0 5.3-.2 7-.7.5-.1 1 0 1.2.3.3.3.5.6.5 1v2c0 1.5-3 2.3-8.7 2.3-2.4 0-4.5-.8-6.1-2.3a7.6 7.6 0 0 1-2.6-5.9v-9.8c0-2.3.9-4.2 2.6-5.8a8.7 8.7 0 0 1 6.1-2.3c5.8 0 8.7.8 8.7 2.3v2m28.4 20.4c0 1-.5 1.3-1.4 1.3h-3c-.8 0-1.3-.4-1.3-1.3v-16.5c0-1-.3-1.7-.9-2.4-.6-.6-1.3-1-2.1-1h-7v20c0 .8-.4 1.2-1.3 1.2h-2.9c-.9 0-1.3-.4-1.3-1.3V223c0-.7.6-1.2 1.8-1.5l2.3-.3c.4 0 .8 0 1 .4.3.3.5.6.5.9v9h6.9c2.4 0 4.5.9 6.1 2.4a7.8 7.8 0 0 1 2.6 6v16.4m13.8.1c0 .8-.5 1.3-1.4 1.3h-3c-.8 0-1.3-.5-1.3-1.3v-23.5c0-.9.5-1.3 1.4-1.3h3c.8 0 1.3.4 1.3 1.3v23.5zm1-31.6c0 .9-.5 1.3-1.4 1.3H374c-.8 0-1.3-.4-1.3-1.3v-2.3c0-.8.5-1.3 1.3-1.3h4.9c.9 0 1.3.5 1.3 1.3v2.3zm21.3 28v-6.5h-6.9c-.8 0-1.5.3-2.1 1-.6.6-1 1.4-1 2.2 0 1 .4 1.7 1 2.3.6.7 1.3 1 2.1 1h6.9zm5.6 3.6c0 .8-.4 1.3-1.3 1.3h-11.2c-2.4 0-4.5-.8-6.2-2.3a7.6 7.6 0 0 1-2.5-5.9c0-2.3.9-4.3 2.5-5.8a8.8 8.8 0 0 1 6.2-2.3h6.9v-1.6c0-1-.3-1.7-1-2.4-.5-.6-1.2-1-2-1-3 0-5.2.2-6.3.5a1 1 0 0 1-1.2-.4c-.3-.3-.4-.6-.4-1v-2c0-.7.4-1 1.1-1.3 1.5-.4 3.7-.6 6.8-.6 2.4 0 4.4.8 6.1 2.3a7.6 7.6 0 0 1 2.5 5.8v16.7zm19.5-.2c0 .8-.4 1.3-1.3 1.3l-2 .1c-2.5.2-4.6-.5-6.2-2.1a8 8 0 0 1-2.6-6v-23.1c0-.7.6-1.2 1.8-1.5l2.4-.3c.4 0 .7 0 1 .4.3.3.5.6.5 1v5.7h5c1 0 1.4.4 1.4 1.3v2.3c0 .9-.5 1.3-1.3 1.3h-5.1v12.8c0 1 .2 1.7.8 2.4.6.6 1.3 1 2.2 1h2c1 0 1.4.4 1.4 1.3v2.1m22.8-21.1c0 .3-.2.7-.5 1-.3.2-.6.4-1 .4h-6c-.8 0-1.5.3-2.1 1-.6.6-1 1.4-1 2.3v16.5c0 .9-.4 1.3-1.3 1.3h-3c-.8 0-1.3-.4-1.3-1.3v-16.5c0-2.4.8-4.4 2.5-6a8.3 8.3 0 0 1 6.2-2.2l6.2.2c1 0 1.4.5 1.4 1.3v2m12.2 21.3c0 .8-.5 1.3-1.4 1.3h-3c-.8 0-1.3-.5-1.3-1.3v-23.5c0-.9.5-1.3 1.4-1.3h3c.8 0 1.3.4 1.3 1.3v23.5zm.9-31.6c0 .9-.4 1.3-1.3 1.3h-4.9c-.9 0-1.3-.4-1.3-1.3v-2.3c0-.8.4-1.3 1.3-1.3h4.9c.9 0 1.3.5 1.3 1.3v2.3zm23.8 25.2a7 7 0 0 1-2.5 5.6 9.2 9.2 0 0 1-6.1 2c-5.8 0-8.7-.7-8.7-2.2v-2c0-.4.2-.7.4-1 .3-.3.7-.4 1.2-.3 1.7.5 4 .7 7 .7 1 0 1.7-.3 2.2-.8.6-.5 1-1.2 1-2s-.5-1.4-1.3-1.9l-2.2-1-5.6-2.6a6 6 0 0 1-2.7-5.2 7 7 0 0 1 2.5-5.6c1.7-1.4 3.7-2 6.2-2 5.6 0 8.5.7 8.5 2.2v2c0 .3-.2.6-.4 1-.3.3-.7.4-1.2.3-1.8-.5-4-.7-7-.7-.8 0-1.5.2-2.1.8-.6.5-.9 1.2-.9 2s.4 1.4 1.2 1.9l2.2 1a42 42 0 0 1 5.6 2.6 6 6 0 0 1 2.7 5.1M510 236c0 .2 0 .5-.4.8-.3.4-.6.5-1.1.4a29 29 0 0 0-7.1-.7c-.8 0-1.5.3-2.1 1-.6.6-1 1.4-1 2.3v9.7c0 1 .4 1.7 1 2.3.6.7 1.3 1 2.1 1 3 0 5.3-.2 7-.7.5-.1.9 0 1.2.3.3.3.4.6.4 1v2c0 1.5-2.8 2.3-8.6 2.3-2.4 0-4.5-.8-6.1-2.3a7.6 7.6 0 0 1-2.6-5.9v-9.8c0-2.3.9-4.2 2.6-5.8a8.7 8.7 0 0 1 6.1-2.3c5.8 0 8.6.8 8.6 2.3v2m28.4 20.4c0 1-.4 1.3-1.3 1.3h-3c-.8 0-1.3-.4-1.3-1.3v-16.5c0-1-.3-1.7-.9-2.4-.6-.6-1.3-1-2.1-1h-7v20c0 .8-.4 1.2-1.3 1.2h-2.9c-.9 0-1.3-.4-1.3-1.3V223c0-.7.6-1.2 1.8-1.5l2.3-.3c.4 0 .8 0 1 .4.3.3.5.6.5.9v9h6.9c2.4 0 4.5.9 6.1 2.4a7.8 7.8 0 0 1 2.5 6v16.4m41.8.1c0 .8-.4 1.3-1.3 1.3h-20.7c-.9 0-1.3-.5-1.3-1.3v-2c0-.4.1-.9.4-1.3l16.4-27h-15.5c-.9 0-1.3-.4-1.3-1.3v-2.3c0-.8.4-1.3 1.3-1.3H579c.9 0 1.3.5 1.3 1.3v1.9c0 .4-.1.9-.3 1.3l-16.4 27.1H579c.9 0 1.3.4 1.3 1.3v2.3m21.9-6.9v-9.7c0-1-.3-1.7-.9-2.3-.6-.7-1.3-1-2-1h-4c-.8 0-1.5.3-2.1 1-.6.6-.9 1.4-.9 2.3v9.7c0 1 .3 1.7 1 2.3.5.7 1.2 1 2 1h4c.7 0 1.4-.3 2-1 .6-.6 1-1.4 1-2.3zm5.7 0c0 2.4-.9 4.3-2.5 5.9a8.8 8.8 0 0 1-6.2 2.3h-4c-2.3 0-4.3-.8-6-2.3a7.6 7.6 0 0 1-2.5-5.9v-9.8c0-2.3.8-4.2 2.5-5.8a8.7 8.7 0 0 1 6.1-2.3h4c2.3 0 4.4.8 6 2.3a7.6 7.6 0 0 1 2.6 5.8v9.8zm22.7-14.4c0 .3-.2.7-.5 1-.3.2-.6.4-1 .4H623c-.8 0-1.5.3-2.1 1-.6.6-1 1.4-1 2.3v16.5c0 .9-.4 1.3-1.3 1.3h-3c-.8 0-1.3-.4-1.3-1.3v-16.5c0-2.4.9-4.4 2.5-6a8.3 8.3 0 0 1 6.2-2.2l6.2.2c1 0 1.4.5 1.4 1.3v2m21.3 8.1v-3.3c0-1-.3-1.7-1-2.4-.6-.7-1.3-1-2-1h-4c-.8 0-1.5.3-2 1-.7.7-1 1.5-1 2.4v6.6h7c.7 0 1.4-.3 2-1 .7-.6 1-1.4 1-2.3zm5.6 17.3c0 2.4-.9 4.3-2.6 5.6a9.5 9.5 0 0 1-6 1.9h-4c-2.4 0-4.4-.7-6.1-2.1a7 7 0 0 1-2.5-5.7c0-1 .5-1.4 1.4-1.4h2.7c1 0 1.5.4 1.5 1.4 0 .9.3 1.6.8 2.1.6.5 1.4.8 2.3.8h3.8c2 0 3-.8 3-2.5s-1-2.5-3-2.5H645c-2.4 0-4.4-.8-6-2.3a7.8 7.8 0 0 1-2.6-6v-10c0-2.3.8-4.3 2.5-5.8a8.7 8.7 0 0 1 6.2-2.4h3.8c2.5 0 4.5.8 6.2 2.3a7.7 7.7 0 0 1 2.5 6v3.3c0 2.3-.8 4.3-2.5 5.9a8.6 8.6 0 0 1-6.2 2.3h-6.5c.6 1.1 1.5 1.7 2.7 1.7h3.8c2.5 0 4.5.6 6.1 1.9a6.6 6.6 0 0 1 2.6 5.5zm24.3-24.5c0 .2-.2.5-.5.8-.3.4-.6.5-1.1.4a29 29 0 0 0-7-.7c-.9 0-1.6.3-2.2 1-.6.6-1 1.4-1 2.3v9.7c0 1 .4 1.7 1 2.3.6.7 1.3 1 2.1 1 3 0 5.3-.2 7-.7.5-.1 1 0 1.2.3.3.3.5.6.5 1v2c0 1.5-3 2.3-8.7 2.3-2.4 0-4.5-.8-6.1-2.3a7.6 7.6 0 0 1-2.5-5.9v-9.8c0-2.3.8-4.2 2.5-5.8a8.7 8.7 0 0 1 6.1-2.3c5.8 0 8.7.8 8.7 2.3v2m22.2 3.8c0-.9-.3-1.6-.9-2.3-.6-.6-1.3-1-2.1-1h-3.9c-.8 0-1.5.4-2.1 1-.6.7-1 1.4-1 2.3v3.3h7c.8 0 1.5-.3 2.1-1 .6-.6 1-1.4 1-2.3zm5.7 0c0 2.4-.9 4.3-2.6 5.9a8.8 8.8 0 0 1-6.1 2.3h-7v1.6c0 .9.4 1.7 1 2.3.6.7 1.3 1 2.1 1 3.3 0 5.8-.2 7.5-.7.5-.1 1 0 1.2.3.3.3.5.6.5 1v2c0 1.5-3 2.3-9.2 2.3-2.4 0-4.4-.8-6.1-2.3a7.6 7.6 0 0 1-2.5-5.9v-9.8c0-2.3.8-4.2 2.5-5.8a8.7 8.7 0 0 1 6.1-2.3h3.9c2.4 0 4.5.8 6.1 2.3a7.6 7.6 0 0 1 2.6 5.8zm27.3 16.7c0 .8-.4 1.3-1.3 1.3h-3c-.8 0-1.3-.5-1.3-1.3v-16.6c0-1-.3-1.7-.9-2.3-.6-.7-1.3-1-2-1h-4c-.8 0-1.5.3-2 1-.7.6-1 1.4-1 2.3v16.6c0 .8-.5 1.3-1.4 1.3h-2.9c-.9 0-1.3-.5-1.3-1.3v-16.7c0-2.3.8-4.3 2.5-5.8a8.8 8.8 0 0 1 6.1-2.3h3.9c2.4 0 4.5.8 6.1 2.3a7.6 7.6 0 0 1 2.6 5.8v16.7m19.5-.2c0 .8-.5 1.3-1.3 1.3l-2.1.1c-2.4.2-4.5-.5-6.2-2.1a8 8 0 0 1-2.5-6v-23.1c0-.7.6-1.2 1.8-1.5.8 0 1.5-.2 2.3-.3.5 0 .8 0 1.1.4.3.3.4.6.4 1v5.7h5.1c1 0 1.4.4 1.4 1.3v2.3c0 .9-.5 1.3-1.4 1.3h-5v12.8c0 1 .2 1.7.8 2.4.6.6 1.3 1 2.2 1h2c1 0 1.4.4 1.4 1.3v2.1m22.8-21.1c0 .3-.2.7-.5 1-.3.2-.6.4-1 .4h-6.2c-.7 0-1.4.3-2 1-.7.6-1 1.4-1 2.3v16.5c0 .9-.4 1.3-1.3 1.3h-3c-.8 0-1.3-.4-1.3-1.3v-16.5c0-2.4.8-4.4 2.5-6a8.3 8.3 0 0 1 6.2-2.2l6.2.2c1 0 1.4.5 1.4 1.3v2m26.9 14.4c0 2.4-.9 4.3-2.5 5.8a8.7 8.7 0 0 1-6.2 2.4h-3.9c-2.4 0-4.4-.8-6.1-2.3a7.6 7.6 0 0 1-2.5-5.9V233c0-.9.4-1.3 1.3-1.3h3c.8 0 1.3.4 1.3 1.3v16.6c0 .9.3 1.7 1 2.3.5.7 1.2 1 2 1h4c.7 0 1.4-.3 2-1 .6-.6 1-1.4 1-2.3V233c0-.9.4-1.3 1.3-1.3h2.9c1 0 1.4.4 1.4 1.3v16.6m43.9 6.8c0 .8-.4 1.3-1.3 1.3h-3c-.8 0-1.3-.5-1.3-1.3v-16.6c0-1-.3-1.7-1-2.3-.5-.7-1.2-1-2-1h-4c-.7 0-1.4.3-2 1-.6.6-1 1.3-1 2.3v16.6c0 .5-.3 1-1.1 1.3h-3.1c-1 0-1.4-.5-1.4-1.3v-16.6c0-1-.3-1.7-.9-2.4-.6-.6-1.3-1-2-1h-4c-.8 0-1.5.4-2 1-.7.7-1 1.5-1 2.4v16.6c0 .8-.5 1.3-1.4 1.3h-2.9c-1 0-1.4-.5-1.3-1.3v-16.7c0-2.3.8-4.3 2.5-5.8a8.8 8.8 0 0 1 6.1-2.3h3.9c2.3 0 4.2.7 5.8 2 1.6-1.3 3.6-2 5.9-2h3.9c2.4 0 4.4.8 6.1 2.3a7.6 7.6 0 0 1 2.5 5.8v16.7M32.5 35.5l1.5-6.8 4.6-4.6 5.3-1.5h32l6.2 1.5 4.6 4.6 1.5 6.8v81.7l-1.5 6.9-4.6 4.5-6.1 1.6H44l-5.4-1.6-4.6-4.5-1.5-7V35.6zM76 .5H37.8l-5.3 1.4L27 4.2l-5.3 3-4.6 3.9-3 3.8-3.1 4.6-1.5 5.3L8 29.4v92.4l.8 4.6 3 7.6 2.3 3.8 2.3 3 3 3.1 4 2.3 3.7 2.3L31 150l3.9 1.5 4.5.8h42l4.6-.8 3.8-1.5 3.8-1.5 3.8-2.3 3.9-2.3 3-3 2.3-3.1 2.3-3.8 3-7.6.8-4.6V30.9l-.8-4.5-3-7.7-2.3-3.8-2.3-3-3-3-3.9-2.4-3.8-2.3-3.8-1.5L86 1.2 81.3.4H76zm145 61h-43.5V21.8H221l6 2.2 3.8 4.6 2.3 6.8v13l-1.5 6.9L227 60l-6.1 1.5zM247.7 11l-3-3-4.7-3-3.8-2.3-5.4-1.5-4.6-.8h-67.1l-3.8.8-2.3 2.3-.8 3v139.7l.8 3 2.3 2.3 3.8.8h11.4l3-.8 3.1-2.2.8-3.1V83.6h48l4.6-.8 4.6-1.5 3.8-1.5 3.9-2.3 3-2.3 3-3 2.4-3 4.5-7.7.8-3.8 1.5-4.6V29.4l-1.5-4.6-2.3-5.3-2.3-4.6-3.8-3.8zm135.1 3.2V6.5l-.8-3-2.3-2.3-3-.8h-85.5l-3 .8-2.3 2.3-.8 3v10l.8 2.2 2.3 2.3 3 1.6h62.6-.8l-.7 1.5-1.6 2.3-3 6-2.3 3.9-9.2 13.7-6 10.7-3.9 6.1-3 5.4-7.7 12.2-3 5.3-3.8 6.1-3 5.4-3.1 5.3-6.1 9.2-2.3 4.5-2.3 3.1-1.6 3-1.5 3.1-1.5 1.5-.8 1.6-.7 1.5-.8 2.3v9.9l.8 3 2.3 2.3 3 .8h85.5l3-.8 2.3-2.2.8-3.1v-10l-.8-3-2.3-2.3-3-.7H314l1.5-1.6 1.6-2.2 3-6.2 2.3-3.8 9.2-13.7 3-5.4 3-6 3.9-5.4 3-6.1 3.9-5.3 3-6.2 3.8-6 3-5.4 3.9-5.3 3-5.4 6.2-9.1 2.2-4.6 2.3-3.8 1.6-3 1.5-2.4 1.5-2.3.8-.7v-.8l.7-1.5.8-2.3v-1.5" fill="#898A78"></path><path fill="#F2B229" d="M543 42.4l-.7.8-.7.7h-13.8l-.7-.7v-3.9l.7-3.8.8-2.3V28l-1.5-5.3-2.3-3.9-4.6-3-4.6-.8h-32l-4.6.8-3.8 2.3-3.9 2.3-3.8 3.8-2.3 4.6-.7 4.5-.8.8v2.3l-.8 3-.7 4.6-.8 5.4-1.5 6-.8 7-1.5 6.8-.8 6.9-1.5 7.6-1.5 6.9-.8 6.8-1.5 5.4-.8 6.1-1.5 7.6v3l-.8 5.4 1.6 5.4 3 3.8 3.8 2.3 5.4.7h32l4.6-.7 3.8-1.5 3.8-3.1 3.1-3 2.3-4.6 1.5-4.6.8-2.3.7-3.8.8-6.9 1.5-6.9.8-7.6 1.5-6.1.8-4.6v-1.5h-30.5l-.8-1.5v-3l.8-5.4.7-2.3.8-.8.7-.7.8-.8H537l.7.8.8.7v2.3l-.8 3.8-1.5 6.1-.8 6.9-3 15.3-.8 6.8-1.5 6.1-.8 3.9v1.5l-.7 4.6-1.5 3.8-2.3 4.6-3 3.8-2.4 3-3 3-3.8 2.4-3.9 2.3-4.5 2.3-3.9.7-4.5 1.5H459l-4.6-.7-3.8-.8-4.6-1.5-3-2.3-3-2.3-3.1-3-3-7.7-1.6-4.6v-4.5l.8-4.6v-.8l.7-2.3v-3.8l.8-3.8 1.5-6.1.8-5.4.8-6.8 1.5-6.9 1.5-7.6.8-6.9 1.5-6.9.8-6.8 1.5-6.1.8-5.4.7-4.6.8-3V34l.7-.8.8-4.5 1.5-4.6 2.3-3.8 2.3-3.9 6.1-6 3.8-3.1L469 5l3.9-1.5 4.5-1.6 3.9-.7h41.2l4.6 1.5 3.8 1.5 3.8 1.6 6 6 1.6 3.1 1.5 4.6.8 3.8.8 4.6-.8 5.3-.8 2.3-.7 3.8v3.1m116.8 34.3v-9.9l-.8-4.6-1.5-3.8-2.3-3.8-2.3-3-3-2.3-4-2.3-3.8-1.6-9.2-1.5h-16l-4.6.8-3.8.7-4.6.8-7.6 4.6-3.8 2.3-3 3-3.1 3.9-2.3 3.8-2.3 3.8-1.5 4.6-1.5 4.5v1.6l-.8 4.5-1.5 7L575 98l-.7 7.6-1.5 7-.8 5.3-.8 1.5v10l.8 3.7 1.5 3.8 2.3 3.9 2.3 3 3 2.3 3.9 2.3 3.8 1.5 4.6.8 4.5.7h11.5l6-.7 5.4-.8 5.4-.7 5.3-2.3h.8l.7-.8v-.8l.8-2.3.8-4.5v-3.8l-1.6-.8-6 1.5-6.2.8-5.3.7h-15.3l-4.6-.7-3.8-2.3-3-3.8-1.5-5.4v-5.3l.7-3 .8-5.4.7-2.3h32.1l9.2-1.5 3.8-.8 7.6-4.6 3.8-2.3 3-3 3.1-3.8 2.3-3 2.3-4.7 1.5-3.8 1.6-4.6zm-16 0l-1.6 4.6-2.3 3.8-3 3.9-3.9 3-4.5 1.5-4.6.8h-32l.7-4.6 1.5-8.4.8-4.6 1.5-5.3 2.3-3.8 3-3.8 3.9-3 4.5-1.6 4.6-.8h16l4.6.8 3.9 3 3 3.9 1.5 4.5v6.1zm132 0l.7-5.3-.7-4.6-.8-4.6-1.5-3.8-2.3-3.8-2.3-3-3-2.3-4-2.3-3.8-1.6-9.1-1.5h-16l-4.6.8-3.9.7-4.5.8-3.9 2.3-3.8 2.3-3.8 2.3-3 3-3.1 3.9-2.3 3.8-2.3 3.8-1.5 4.6-.8 4.5-.7 1.6-.8 4.5-.8 7L692 98l-1.5 7.6-1.5 7-.8 5.3v1.5l-.8 4.6v5.3l.8 3.8 1.5 3.8 2.3 3.9 2.3 3 3.8 2.3 3 2.3 3.9 1.5 4.6.8 4.5.7h11.5l6.1-.7 5.3-.8 5.4-.7 5.3-2.3h.8l.8-.8.7-.8V143l.8-4.5.7-2.3v-.8l-.7-.7-.8-.8-6.8 1.5-6.2.8-5.3.7h-14.5l-5.3-.7-3.9-2.3-3-3.8-1.5-5.4.7-5.3v-3l.8-5.4.8-2.3h32l4.6-.8 4.6-.7 3.8-.8 4.6-2.3 3.8-2.3 3-2.3 3.9-3 2.2-3.8 3-3 1.6-4.7 1.5-3.8 1.6-4.6zm-16 0l-1.6 4.6-2.3 3.8-3 3.9-3.8 3-4.6 1.5-3.8.8h-32.9l1.6-4.6 1.5-8.4.8-4.6.7-5.3 3-3.8 3.1-3.8 3.8-3 3.9-1.6 4.5-.8h16l4.6.8 3.9 3 3 3.9 1.5 4.5v6.1zm60.2 72.6l-.7 1.5-.8.7H805l-.8-.7v-3l.8-1.6v-3l.7-3.1.8-3.8 1.5-9.2.8-5.3.8-6.1 1.5-5.4.7-6 1.6-7 .7-6.8 1.6-6.1.7-6.9 1.6-6.9.7-6.8 1.5-6.1.8-7 1.5-6 .8-6.1.8-5.4 1.5-5.3.7-5.3 1.6-7.7v-3.8l.7-2.3.8-2.3V4.2l1.5-.7h.8l3-.8 6.1-.8 3.1-.7h1.5l.8.7v1.6l-.8 1.5v1.5l-.7 3-.8 3.1v3.8l-1.5 4.6-2.3 16-1.5 6.2-.8 6-1.5 7-.8 6.8-1.5 7-.8 6-1.5 7-.8 6.8-1.5 6.9-.8 6.9-1.5 6-.8 6.2-1.5 5.3-1.5 10.7-.8 4.6-.7 3.8-.8 3v3.1l-.8 1.5v1.6"></path><path fill="#898A78" d="M1.5 189.6H.8v.7H0l.8.8v.7h850.5v-.7l.8-.8h-.8v-.7H1.5"></path></g></svg>
